<?xml version="1.0" encoding="UTF-8" standalone="no"?>
<!-- Created with Inkscape (http://www.inkscape.org/) -->

<svg
   xmlns:dc="http://purl.org/dc/elements/1.1/"
   xmlns:cc="http://creativecommons.org/ns#"
   xmlns:rdf="http://www.w3.org/1999/02/22-rdf-syntax-ns#"
   xmlns:svg="http://www.w3.org/2000/svg"
   xmlns="http://www.w3.org/2000/svg"
   xmlns:sodipodi="http://sodipodi.sourceforge.net/DTD/sodipodi-0.dtd"
   xmlns:inkscape="http://www.inkscape.org/namespaces/inkscape"
   version="1.1"
   id="svg2"
   xml:space="preserve"
   width="1041.5961"
   height="233.69528"
   viewBox="0 0 1041.5961 233.69528"
   sodipodi:docname="final.svg"
   inkscape:version="0.92.4 (5da689c313, 2019-01-14)"><metadata
     id="metadata8"><rdf:RDF><cc:Work
         rdf:about=""><dc:format>image/svg+xml</dc:format><dc:type
           rdf:resource="http://purl.org/dc/dcmitype/StillImage" /><dc:title></dc:title></cc:Work></rdf:RDF></metadata><defs
     id="defs6"><clipPath
       clipPathUnits="userSpaceOnUse"
       id="clipPath20"><path
         d="M 0,595.28 H 841.89 V 0 H 0 Z"
         id="path18"
         inkscape:connector-curvature="0" /></clipPath><clipPath
       clipPathUnits="userSpaceOnUse"
       id="clipPath134"><rect
         id="rect136"
         width="842.89557"
         height="300.77533"
         x="-1.0055847"
         y="-597.31732"
         style="stroke-width:0.75"
         transform="scale(1,-1)" /></clipPath></defs><sodipodi:namedview
     pagecolor="#ffffff"
     bordercolor="#666666"
     borderopacity="1"
     objecttolerance="10"
     gridtolerance="10"
     guidetolerance="10"
     inkscape:pageopacity="0"
     inkscape:pageshadow="2"
     inkscape:window-width="1920"
     inkscape:window-height="1015"
     id="namedview4"
     showgrid="false"
     inkscape:zoom="1"
     inkscape:cx="465.78741"
     inkscape:cy="100.41056"
     inkscape:window-x="0"
     inkscape:window-y="0"
     inkscape:window-maximized="1"
     inkscape:current-layer="g26" /><g
     id="g10"
     inkscape:groupmode="layer"
     inkscape:label="IST_C_1COR"
     transform="matrix(1.3333333,0,0,-1.3333333,-47.35328,696.11971)"><path
       d="M 0,0 H 841.89 V 296.542 H 0 Z"
       style="fill:#4c565c;fill-opacity:1;fill-rule:nonzero;stroke:none"
       id="path12"
       inkscape:connector-curvature="0" /><g
       id="g14"
       clip-path="url(#clipPath134)"
       transform="matrix(1.8371594,0,0,1.7845329,-362.26716,-359.35061)"><g
         id="g16"
         clip-path="url(#clipPath20)"><g
           id="g22"
           transform="translate(278.7402,462.9224)"><path
             d="M 0,0 H -3.381 V -25.42 H -10.7 V 0 h -3.374 V 5.098 H 0 Z m -18.024,13.191 -0.003,-46.718 c 0,-6.057 -4.906,-9.192 -10.957,-9.192 -6.051,0 -11.001,2.646 -11.001,7.787 h 0.006 c 0,2.019 1.638,3.656 3.654,3.656 2.017,0 3.652,-1.637 3.652,-3.656 h 0.004 c 0,-3.733 0.297,-6.267 3.685,-6.267 3.64,0 3.64,2.545 3.64,7.672 l 0.003,46.718 c 0,6.051 4.905,9.189 10.958,9.189 6.05,0 11,-2.643 11,-7.787 h -0.006 c 0,-2.018 -1.635,-3.654 -3.655,-3.654 -2.017,0 -3.651,1.636 -3.651,3.654 H -10.7 c 0,3.733 -0.296,6.267 -3.683,6.267 -3.642,0 -3.641,-2.541 -3.641,-7.669 M -39.973,5.098 h 7.296 l 0.01,-30.499 H -39.98 Z M -62.22,31.011 v -41.219 c 0,-37.116 40.528,-56.998 40.528,-56.998 0,0 40.679,19.882 40.679,56.998 v 41.219 z"
             style="fill:#4c565c;fill-opacity:1;fill-rule:evenodd;stroke:none"
             id="path24"
             inkscape:connector-curvature="0" /></g><g
           id="g26"
           transform="translate(334.5337,462.854)"><path
             d="M 0,0 H -8.634 V 5.074 H 14.482 V 0 H 5.849 V -25.373 H 0 Z"
             style="fill:#4c565c;fill-opacity:1;fill-rule:nonzero;stroke:none"
             id="path28"
             inkscape:connector-curvature="0" /></g><g
           id="g30"
           transform="translate(359.4146,473.002)"><path
             d="M 0,0 C 2.181,1.326 4.316,2.651 6.173,4.069 L 8.355,0.687 C 6.267,-0.823 4.548,-1.828 2.042,-3.108 Z m -6.453,-5.074 h 18.938 v -5.074 H -0.604 v -7.362 h 12.069 v -5.073 H -0.604 v -7.866 h 13.089 v -5.072 H -6.453 Z"
             style="fill:#4c565c;fill-opacity:1;fill-rule:nonzero;stroke:none"
             id="path32"
             inkscape:connector-curvature="0" /></g><g
           id="g34"
           transform="translate(376.5439,459.561)"><path
             d="m 0,0 c 0,5.579 3.296,8.823 11,8.823 2.879,0 5.85,-0.365 8.404,-1.006 l -0.65,-4.984 c -2.507,0.46 -5.431,0.778 -7.567,0.778 -4.038,0 -5.338,-1.37 -5.338,-4.617 V -12.71 c 0,-3.245 1.3,-4.615 5.338,-4.615 2.136,0 5.06,0.317 7.567,0.777 l 0.65,-4.983 c -2.554,-0.642 -5.525,-1.007 -8.404,-1.007 -7.704,0 -11,3.246 -11,8.824 z"
             style="fill:#4c565c;fill-opacity:1;fill-rule:nonzero;stroke:none"
             id="path36"
             inkscape:connector-curvature="0" /></g><g
           id="g38"
           transform="translate(406.5303,460.5669)"><path
             d="M 0,0 V -23.086 H -5.709 V 7.361 H 2.089 L 13.833,-15.771 V 7.361 h 5.709 v -30.447 h -7.798 z"
             style="fill:#4c565c;fill-opacity:1;fill-rule:nonzero;stroke:none"
             id="path40"
             inkscape:connector-curvature="0" /></g><path
           d="m 438.421,437.481 h -5.849 v 30.447 h 5.849 z"
           style="fill:#4c565c;fill-opacity:1;fill-rule:nonzero;stroke:none"
           id="path42"
           inkscape:connector-curvature="0" /><g
           id="g44"
           transform="translate(444.2246,459.561)"><path
             d="m 0,0 c 0,5.579 3.296,8.823 11.001,8.823 2.878,0 5.849,-0.365 8.402,-1.006 L 18.754,2.833 c -2.507,0.46 -5.431,0.778 -7.567,0.778 -4.038,0 -5.338,-1.37 -5.338,-4.617 V -12.71 c 0,-3.245 1.3,-4.615 5.338,-4.615 2.136,0 5.06,0.317 7.567,0.777 l 0.649,-4.983 C 16.85,-22.173 13.879,-22.538 11.001,-22.538 3.296,-22.538 0,-19.292 0,-13.714 Z"
             style="fill:#4c565c;fill-opacity:1;fill-rule:nonzero;stroke:none"
             id="path46"
             inkscape:connector-curvature="0" /></g><g
           id="g48"
           transform="translate(472.958,446.7158)"><path
             d="m 0,0 c 0,-2.881 1.485,-4.618 5.848,-4.618 4.364,0 5.848,1.737 5.848,4.618 v 11.978 c 0,2.878 -1.484,4.617 -5.848,4.617 C 1.485,16.595 0,14.856 0,11.978 Z m 17.545,-0.32 c 0,-5.075 -2.971,-9.373 -11.697,-9.373 -8.727,0 -11.698,4.298 -11.698,9.373 v 12.616 c 0,5.077 2.971,9.372 11.698,9.372 8.726,0 11.697,-4.295 11.697,-9.372 z"
             style="fill:#4c565c;fill-opacity:1;fill-rule:nonzero;stroke:none"
             id="path50"
             inkscape:connector-curvature="0" /></g><g
           id="g52"
           transform="translate(509.0264,439.9038)"><path
             d="M 0,0 H 13.925 V -2.423 H -2.738 V 28.024 H 0 Z"
             style="fill:#4c565c;fill-opacity:1;fill-rule:nonzero;stroke:none"
             id="path54"
             inkscape:connector-curvature="0" /></g><path
           d="m 531.912,437.481 h -2.739 v 30.447 h 2.739 z"
           style="fill:#4c565c;fill-opacity:1;fill-rule:nonzero;stroke:none"
           id="path56"
           inkscape:connector-curvature="0" /><g
           id="g58"
           transform="translate(548.252,437.0229)"><path
             d="m 0,0 c -2.692,0 -6.082,0.458 -8.727,1.464 l 0.511,2.195 C -5.432,2.835 -2.6,2.423 0.093,2.423 c 5.291,0 6.73,1.555 6.73,5.44 0,4.709 -0.047,5.212 -6.916,6.767 -7.474,1.69 -8.309,3.018 -8.309,9.142 0,4.984 1.856,7.589 9.608,7.589 2.693,0 5.896,-0.456 7.984,-1.05 L 8.865,28.023 c -2.274,0.504 -5.152,0.915 -7.566,0.915 -6.126,0 -6.962,-1.462 -6.962,-5.256 0,-4.937 0.139,-5.167 6.638,-6.766 C 9.098,14.903 9.563,13.762 9.563,8 9.563,3.018 7.844,0 0,0"
             style="fill:#4c565c;fill-opacity:1;fill-rule:nonzero;stroke:none"
             id="path60"
             inkscape:connector-curvature="0" /></g><g
           id="g62"
           transform="translate(581.6729,447.5845)"><path
             d="m 0,0 c 0,2.56 -1.53,4.297 -5.104,4.297 h -8.635 V -7.727 h 9.422 c 2.926,0 4.317,1.416 4.317,3.841 z m -0.976,14.719 c 0,2.104 -1.205,3.246 -3.85,3.246 h -8.913 V 6.673 h 7.983 c 3.39,0 4.78,1.738 4.78,4.161 z m -15.502,-24.823 v 30.447 h 11.605 c 4.177,0 6.637,-1.967 6.637,-5.988 V 10.696 C 1.764,8.274 0.743,6.673 -1.763,5.759 0.65,5.44 2.739,3.473 2.739,0.091 v -3.977 c 0,-4.207 -3.11,-6.218 -7.101,-6.218 z"
             style="fill:#4c565c;fill-opacity:1;fill-rule:nonzero;stroke:none"
             id="path64"
             inkscape:connector-curvature="0" /></g><g
           id="g66"
           transform="translate(609.0605,446.1675)"><path
             d="m 0,0 v 13.074 c 0,4.343 -2.135,6.719 -8.077,6.719 -5.942,0 -8.075,-2.376 -8.075,-6.719 V 0 c 0,-4.345 2.133,-6.722 8.075,-6.722 C -2.135,-6.722 0,-4.345 0,0 m -8.077,-9.145 c -7.936,0 -10.815,3.841 -10.815,9.052 v 13.259 c 0,5.211 2.879,9.051 10.815,9.051 7.939,0 10.817,-3.84 10.817,-9.051 V -0.093 c 0,-5.211 -2.878,-9.052 -10.817,-9.052"
             style="fill:#4c565c;fill-opacity:1;fill-rule:nonzero;stroke:none"
             id="path68"
             inkscape:connector-curvature="0" /></g><g
           id="g70"
           transform="translate(622.5693,447.812)"><path
             d="m 0,0 h 12.719 l -6.36,18.563 z m 13.555,-2.332 h -14.39 l -2.878,-7.999 H -6.406 L 4.363,20.116 h 4.038 l 10.77,-30.447 h -2.692 z"
             style="fill:#4c565c;fill-opacity:1;fill-rule:nonzero;stroke:none"
             id="path72"
             inkscape:connector-curvature="0" /></g><g
           id="g74"
           transform="translate(278.7402,165.8193)"><path
             d="M 0,0 H -3.381 V -25.42 H -10.7 V 0 h -3.374 V 5.099 H 0 Z m -18.024,13.191 -0.003,-46.718 c 0,-6.057 -4.906,-9.192 -10.957,-9.192 -6.051,0 -11.001,2.646 -11.001,7.787 h 0.006 c 0,2.019 1.638,3.656 3.654,3.656 2.017,0 3.652,-1.637 3.652,-3.656 h 0.004 c 0,-3.733 0.297,-6.267 3.685,-6.267 3.64,0 3.64,2.545 3.64,7.672 l 0.003,46.718 c 0,6.051 4.905,9.189 10.958,9.189 6.05,0 11,-2.643 11,-7.787 h -0.006 c 0,-2.018 -1.635,-3.655 -3.655,-3.655 -2.017,0 -3.651,1.637 -3.651,3.655 H -10.7 c 0,3.733 -0.296,6.267 -3.683,6.267 -3.642,0 -3.641,-2.541 -3.641,-7.669 M -39.973,5.099 h 7.296 l 0.01,-30.5 H -39.98 Z M -62.22,31.011 v -41.219 c 0,-37.116 40.528,-56.998 40.528,-56.998 0,0 40.679,19.882 40.679,56.998 v 41.219 z"
             style="fill:#ffffff;fill-opacity:1;fill-rule:evenodd;stroke:none"
             id="path76"
             inkscape:connector-curvature="0" /></g><g
           id="g78"
           transform="translate(334.5337,165.751)"><path
             d="M 0,0 H -8.634 V 5.073 H 14.482 V 0 H 5.849 V -25.373 H 0 Z"
             style="fill:#ffffff;fill-opacity:1;fill-rule:nonzero;stroke:none"
             id="path80"
             inkscape:connector-curvature="0" /></g><g
           id="g82"
           transform="translate(359.4146,175.8984)"><path
             d="M 0,0 C 2.181,1.326 4.316,2.652 6.173,4.069 L 8.355,0.688 C 6.267,-0.822 4.548,-1.828 2.042,-3.107 Z m -6.453,-5.074 h 18.938 v -5.073 H -0.604 v -7.363 h 12.069 v -5.072 H -0.604 v -7.866 h 13.089 v -5.073 H -6.453 Z"
             style="fill:#ffffff;fill-opacity:1;fill-rule:nonzero;stroke:none"
             id="path84"
             inkscape:connector-curvature="0" /></g><g
           id="g86"
           transform="translate(376.5439,162.458)"><path
             d="m 0,0 c 0,5.579 3.296,8.823 11,8.823 2.879,0 5.85,-0.365 8.404,-1.006 l -0.65,-4.984 c -2.507,0.46 -5.431,0.778 -7.567,0.778 -4.038,0 -5.338,-1.37 -5.338,-4.617 V -12.71 c 0,-3.245 1.3,-4.615 5.338,-4.615 2.136,0 5.06,0.317 7.567,0.777 l 0.65,-4.983 c -2.554,-0.642 -5.525,-1.007 -8.404,-1.007 -7.704,0 -11,3.246 -11,8.824 z"
             style="fill:#ffffff;fill-opacity:1;fill-rule:nonzero;stroke:none"
             id="path88"
             inkscape:connector-curvature="0" /></g><g
           id="g90"
           transform="translate(406.5303,163.4639)"><path
             d="M 0,0 V -23.086 H -5.709 V 7.36 H 2.089 L 13.833,-15.771 V 7.36 h 5.709 v -30.446 h -7.798 z"
             style="fill:#ffffff;fill-opacity:1;fill-rule:nonzero;stroke:none"
             id="path92"
             inkscape:connector-curvature="0" /></g><path
           d="m 438.421,140.378 h -5.849 v 30.446 h 5.849 z"
           style="fill:#ffffff;fill-opacity:1;fill-rule:nonzero;stroke:none"
           id="path94"
           inkscape:connector-curvature="0" /><g
           id="g96"
           transform="translate(444.2246,162.458)"><path
             d="m 0,0 c 0,5.579 3.296,8.823 11.001,8.823 2.878,0 5.849,-0.365 8.402,-1.006 L 18.754,2.833 c -2.507,0.46 -5.431,0.778 -7.567,0.778 -4.038,0 -5.338,-1.37 -5.338,-4.617 V -12.71 c 0,-3.245 1.3,-4.615 5.338,-4.615 2.136,0 5.06,0.317 7.567,0.777 l 0.649,-4.983 C 16.85,-22.173 13.879,-22.538 11.001,-22.538 3.296,-22.538 0,-19.292 0,-13.714 Z"
             style="fill:#ffffff;fill-opacity:1;fill-rule:nonzero;stroke:none"
             id="path98"
             inkscape:connector-curvature="0" /></g><g
           id="g100"
           transform="translate(472.958,149.6133)"><path
             d="m 0,0 c 0,-2.882 1.485,-4.618 5.848,-4.618 4.364,0 5.848,1.736 5.848,4.618 v 11.977 c 0,2.878 -1.484,4.617 -5.848,4.617 C 1.485,16.594 0,14.855 0,11.977 Z m 17.545,-0.32 c 0,-5.076 -2.971,-9.373 -11.697,-9.373 -8.727,0 -11.698,4.297 -11.698,9.373 v 12.616 c 0,5.076 2.971,9.372 11.698,9.372 8.726,0 11.697,-4.296 11.697,-9.372 z"
             style="fill:#ffffff;fill-opacity:1;fill-rule:nonzero;stroke:none"
             id="path102"
             inkscape:connector-curvature="0" /></g><g
           id="g104"
           transform="translate(509.0264,142.8008)"><path
             d="M 0,0 H 13.925 V -2.423 H -2.738 V 28.023 H 0 Z"
             style="fill:#ffffff;fill-opacity:1;fill-rule:nonzero;stroke:none"
             id="path106"
             inkscape:connector-curvature="0" /></g><path
           d="m 531.912,140.378 h -2.739 v 30.446 h 2.739 z"
           style="fill:#ffffff;fill-opacity:1;fill-rule:nonzero;stroke:none"
           id="path108"
           inkscape:connector-curvature="0" /><g
           id="g110"
           transform="translate(548.252,139.9199)"><path
             d="m 0,0 c -2.692,0 -6.082,0.458 -8.727,1.464 l 0.511,2.195 C -5.432,2.835 -2.6,2.423 0.093,2.423 c 5.291,0 6.73,1.555 6.73,5.44 0,4.709 -0.047,5.212 -6.916,6.768 -7.474,1.689 -8.309,3.017 -8.309,9.14 0,4.985 1.856,7.59 9.608,7.59 2.693,0 5.896,-0.457 7.984,-1.05 L 8.865,28.023 c -2.274,0.504 -5.152,0.915 -7.566,0.915 -6.126,0 -6.962,-1.462 -6.962,-5.256 0,-4.938 0.139,-5.166 6.638,-6.766 C 9.098,14.902 9.563,13.762 9.563,8 9.563,3.018 7.844,0 0,0"
             style="fill:#ffffff;fill-opacity:1;fill-rule:nonzero;stroke:none"
             id="path112"
             inkscape:connector-curvature="0" /></g><g
           id="g114"
           transform="translate(581.6729,150.4814)"><path
             d="m 0,0 c 0,2.56 -1.53,4.297 -5.104,4.297 h -8.635 V -7.727 h 9.422 c 2.926,0 4.317,1.416 4.317,3.841 z m -0.976,14.72 c 0,2.103 -1.205,3.246 -3.85,3.246 h -8.913 V 6.673 h 7.983 c 3.39,0 4.78,1.738 4.78,4.162 z m -15.502,-24.824 v 30.447 h 11.605 c 4.177,0 6.637,-1.967 6.637,-5.988 V 10.696 C 1.764,8.274 0.743,6.673 -1.763,5.759 0.65,5.44 2.739,3.473 2.739,0.091 v -3.977 c 0,-4.207 -3.11,-6.218 -7.101,-6.218 z"
             style="fill:#ffffff;fill-opacity:1;fill-rule:nonzero;stroke:none"
             id="path116"
             inkscape:connector-curvature="0" /></g><g
           id="g118"
           transform="translate(609.0605,149.0645)"><path
             d="m 0,0 v 13.074 c 0,4.344 -2.135,6.719 -8.077,6.719 -5.942,0 -8.075,-2.375 -8.075,-6.719 V 0 c 0,-4.345 2.133,-6.722 8.075,-6.722 C -2.135,-6.722 0,-4.345 0,0 m -8.077,-9.145 c -7.936,0 -10.815,3.841 -10.815,9.052 v 13.259 c 0,5.211 2.879,9.051 10.815,9.051 7.939,0 10.817,-3.84 10.817,-9.051 V -0.093 c 0,-5.211 -2.878,-9.052 -10.817,-9.052"
             style="fill:#ffffff;fill-opacity:1;fill-rule:nonzero;stroke:none"
             id="path120"
             inkscape:connector-curvature="0" /></g><g
           id="g122"
           transform="translate(622.5693,150.709)"><path
             d="m 0,0 h 12.719 l -6.36,18.563 z m 13.555,-2.332 h -14.39 l -2.878,-7.999 H -6.406 L 4.363,20.115 h 4.038 l 10.77,-30.446 h -2.692 z"
             style="fill:#ffffff;fill-opacity:1;fill-rule:nonzero;stroke:none"
             id="path124"
             inkscape:connector-curvature="0" /></g></g></g><path
       style="fill:#ffffff;stroke-width:1.34077954"
       d="M 0.34824449,595.72529 V 398.63069 H 561.4645 1122.5808 v 197.0946 197.0946 H 561.4645 0.34824449 Z"
       id="path138"
       inkscape:connector-curvature="0"
       transform="matrix(0.75000002,0,0,-0.75000002,0,595.28002)" /><path
       style="fill:#ffffff;stroke-width:1.34077954"
       d="m 281.01573,397.62512 c 154.73583,-0.18783 407.53982,-0.18782 561.78665,0 154.24682,0.18783 27.64478,0.3415 -281.33788,0.3415 -308.98265,-10e-6 -435.1846,-0.15368 -280.44877,-0.3415 z"
       id="path140"
       inkscape:connector-curvature="0"
       transform="matrix(0.75000002,0,0,-0.75000002,0,595.28002)" /><path
       style="fill:#ffffff;stroke-width:1.34077954"
       d="m 388.06084,397.62516 c 94.88461,-0.18994 250.54912,-0.18995 345.92113,-2e-5 95.37201,0.18993 17.73916,0.34533 -172.51747,0.34534 -190.25662,2e-5 -268.28827,-0.15538 -173.40366,-0.34532 z"
       id="path142"
       inkscape:connector-curvature="0"
       transform="matrix(0.75000002,0,0,-0.75000002,0,595.28002)" /><path
       style="fill:#ffffff;stroke-width:0.01047484"
       d="m 371.70373,401.19099 v -2.55063 h 11.78943 11.78944 v 2.55063 2.55062 h -11.78944 -11.78943 z"
       id="path144"
       inkscape:connector-curvature="0"
       transform="matrix(0.75000002,0,0,-0.75000002,0,595.28002)" /></g></svg>